<?xml version="1.0" encoding="UTF-8"?>
<svg width="91px" height="91px" viewBox="0 0 91 91" version="1.1" xmlns="http://www.w3.org/2000/svg" xmlns:xlink="http://www.w3.org/1999/xlink">
    <!-- Generator: Sketch 61.2 (89653) - https://sketch.com -->
    <title>Group</title>
    <desc>Created with Sketch.</desc>
    <g id="Page-1" stroke="none" stroke-width="1" fill="none" fill-rule="evenodd">
        <g id="IDMBnet_ModuleTaikhoan_2" transform="translate(-1325.000000, -505.000000)">
            <g id="Group-25" transform="translate(121.000000, 389.000000)">
                <g id="Group-16-Copy-2" transform="translate(1204.000000, 116.000000)">
                    <g id="Group">
                        <g id="user" fill="#E7EFFE">
                            <circle id="Oval" cx="45.5" cy="45.5" r="45.5"></circle>
                        </g>
                        <path d="M32.6407559,71.4107647 L19.163047,78.7909509 C18.3721456,79.2238716 17.4378486,80.114612 16.7764915,80.6946916 C24.634369,87.3459283 35.0015282,91 46.0843742,91 C57.0854028,91 67.1642813,87.0472455 75,80.4866997 C74.2772798,79.8741083 73.4931966,79.3231183 72.6238869,78.8884864 L58.1916419,71.6451921 C56.3268875,70.7091935 55.1490581,68.7961288 55.1490581,66.7033934 L55.1490581,61.018956 C55.5547359,60.5552346 56.0183678,59.9597547 56.5143856,59.2564724 C58.4814118,56.4672993 59.9694654,53.3992089 61.0007053,50.1805373 C62.8518236,49.6073024 64.2154466,47.8910198 64.2154466,45.85133 L64.2154466,39.7835952 C64.2154466,38.4488989 63.6239751,37.2562279 62.7052341,36.4211871 L62.7052341,27.6498367 C62.7052341,27.6498367 64.5001029,14 46.0860787,14 C27.6720545,14 29.4669233,27.6498367 29.4669233,27.6498367 L29.4669233,36.4211871 C28.5464778,37.2562279 27.9567108,38.4488989 27.9567108,39.7835952 L27.9567108,45.85133 C27.9567108,47.4495433 28.7936345,48.8561079 30.0464631,49.6689038 C31.5566756,56.268806 35.5111823,61.018956 35.5111823,61.018956 L35.5111823,66.5630792 C35.5094778,68.5822352 34.4083522,70.4422543 32.6407559,71.4107647 Z" id="Path" fill="#85B6F8" fill-rule="nonzero"></path>
                    </g>
                </g>
            </g>
        </g>
    </g>
</svg>